HIERARCHY
ROOT Hips
{
	OFFSET 0.000000 88.474243 0.000000
	CHANNELS 6 Xposition Yposition Zposition Zrotation Yrotation Xrotation 
	JOINT Hips_Spine
	{
		OFFSET 0.000000 0.000000 0.000000
		CHANNELS 3 Zrotation Yrotation Xrotation
		JOINT Spine
		{
			OFFSET 0.005100 8.711998 -0.691000
			CHANNELS 3 Zrotation Yrotation Xrotation
			JOINT Spine1
			{
				OFFSET -0.009200 8.660301 -1.275000
				CHANNELS 3 Zrotation Yrotation Xrotation
				JOINT Spine2
				{
					OFFSET 0.006300 9.852501 -1.857000
					CHANNELS 3 Zrotation Yrotation Xrotation
					JOINT Spine2_Neck
					{
						OFFSET 0.000000 0.000000 0.000000
						CHANNELS 3 Zrotation Yrotation Xrotation
						JOINT Neck
						{
							OFFSET 0.016300 11.420799 -0.263300
							CHANNELS 3 Zrotation Yrotation Xrotation
							End Site #name: Head
							{
								OFFSET -0.019200 9.262405 2.362500
							}
						}
					}
					JOINT Spine2_LeftShoulder
					{
						OFFSET 0.000000 0.000000 0.000000
						CHANNELS 3 Zrotation Yrotation Xrotation
						JOINT LeftShoulder
						{
							OFFSET 5.616900 6.732201 -0.345700
							CHANNELS 3 Zrotation Yrotation Xrotation
							JOINT LeftArm
							{
								OFFSET 10.664888 -0.183372 -2.440700
								CHANNELS 3 Zrotation Yrotation Xrotation
								JOINT LeftForeArm
								{
									OFFSET 27.459126 0.000000 0.000000
									CHANNELS 3 Zrotation Yrotation Xrotation
									End Site #name: LeftHand
									{
										OFFSET 21.306858 0.000000 0.000000
									}
								}
							}
						}
					}
					JOINT Spine2_RightShoulder
					{
						OFFSET 0.000000 0.000000 0.000000
						CHANNELS 3 Zrotation Yrotation Xrotation
						JOINT RightShoulder
						{
							OFFSET -5.580300 6.737503 -0.344400
							CHANNELS 3 Zrotation Yrotation Xrotation
							JOINT RightArm
							{
								OFFSET -10.679335 -0.188484 -2.383900
								CHANNELS 3 Zrotation Yrotation Xrotation
								JOINT RightForeArm
								{
									OFFSET -27.503529 0.000000 0.000000
									CHANNELS 3 Zrotation Yrotation Xrotation
									End Site #name: RightHand
									{
										OFFSET -21.306808 0.000000 0.000000
									}
								}
							}
						}
					}
				}
			}
		}
	}
	JOINT Hips_LeftUpLeg
	{
		OFFSET 0.000000 0.000000 0.000000
		CHANNELS 3 Zrotation Yrotation Xrotation
		JOINT LeftUpLeg
		{
			OFFSET 6.857700 -6.739601 0.312100
			CHANNELS 3 Zrotation Yrotation Xrotation
			JOINT LeftLeg
			{
				OFFSET -0.367590 -34.731552 -4.572400
				CHANNELS 3 Zrotation Yrotation Xrotation
				End Site #name: LeftFoot
				{
					OFFSET 0.367590 -34.656704 -6.067400
				}
			}
		}
	}
	JOINT Hips_RightUpLeg
	{
		OFFSET 0.000000 0.000000 0.000000
		CHANNELS 3 Zrotation Yrotation Xrotation
		JOINT RightUpLeg
		{
			OFFSET -6.876100 -6.733299 0.301000
			CHANNELS 3 Zrotation Yrotation Xrotation
			JOINT RightLeg
			{
				OFFSET 0.347353 -34.795158 -4.515900
				CHANNELS 3 Zrotation Yrotation Xrotation
				End Site #name: RightFoot
				{
					OFFSET -0.347353 -34.589367 -6.070300
				}
			}
		}
	}
}
MOTION
Frames: 6
Frame Time: 0.041667
-1.947603 0.569436 79.234085 1.489853 18.519334 -7.906742 0.000000 0.000000 0.000000 1.837882 -4.028871 10.054557 0.876464 -1.777565 4.243229 0.000000 0.000000 0.000000 0.890296 -1.811305 4.227260 -1.672084 -1.787283 4.499468 0.890296 -1.811305 4.227260 -16.731905 -8.972705 2.922056 -25.263879 -45.751510 8.684659 0.000068 -85.791192 -0.000123 0.890296 -1.811305 4.227260 15.856693 4.029931 1.704340 49.993426 52.629050 15.183211 0.000003 50.703107 -0.000006 0.000000 0.000000 0.000000 20.845567 19.819754 -0.695323 13.862672 -3.083015 61.961070 0.000000 0.000000 0.000000 -9.173584 -12.162183 -57.094841 6.206181 5.776514 67.958282 
-3.000441 0.427987 81.179382 0.111725 22.620757 -8.446566 0.000000 0.000000 0.000000 0.226848 -10.916060 10.456518 0.323008 -5.015329 4.367872 0.000000 0.000000 0.000000 0.373014 -5.057628 4.322205 -0.723218 -0.830510 3.056168 0.373014 -5.057628 4.322205 -15.294734 -8.221523 2.591557 -15.701518 -42.974836 -4.250237 -0.000015 -65.867148 0.000017 0.373014 -5.057628 4.322205 18.016736 4.472670 1.962965 58.772581 41.400074 25.888095 -0.000021 77.716816 -0.000044 0.000000 0.000000 0.000000 24.162888 17.723308 -0.628677 12.701076 -4.510560 60.075216 0.000000 0.000000 0.000000 -9.283375 -14.601436 -55.437417 5.206265 5.556798 70.192141 
-3.660583 0.648262 83.105667 0.529135 26.186568 -7.820356 0.000000 0.000000 0.000000 -1.266974 -13.559393 10.699840 -0.062032 -6.294943 4.323981 0.000000 0.000000 0.000000 0.011252 -6.323277 4.288573 0.019308 -0.619367 1.247825 0.011252 -6.323277 4.288573 -14.833834 -7.896540 2.471721 -19.531004 -41.533627 -9.968142 0.000016 -61.639862 -0.000036 0.011252 -6.323277 4.288573 18.106575 4.701879 2.026122 60.975351 27.353845 25.278587 179.999975 74.042681 179.999989 0.000000 0.000000 0.000000 24.972174 15.247089 -1.906716 10.372026 -5.690868 58.909658 0.000000 0.000000 0.000000 -11.128118 -16.081277 -54.276360 4.902931 6.496829 71.365723 
-3.998278 1.115906 84.383407 2.415502 28.444438 -6.001648 0.000000 0.000000 0.000000 -1.588281 -10.476254 10.289479 -0.111147 -4.870487 4.131039 0.000000 0.000000 0.000000 -0.057060 -4.875415 4.126589 0.448893 -1.374567 0.172262 -0.057060 -4.875415 4.126589 -15.739252 -8.082650 2.607971 -31.646066 -43.722070 -3.221506 0.000030 -75.069441 -0.000031 -0.057060 -4.875415 4.126589 14.450776 4.145837 1.632230 60.674558 23.163118 17.395318 -179.999948 63.617116 -179.999989 0.000000 0.000000 0.000000 22.987183 12.744465 -6.698235 8.188407 -7.262146 62.264442 0.000000 0.000000 0.000000 -13.292642 -16.212587 -52.712447 3.990760 7.720438 70.762038 
-4.244006 1.412690 84.636764 4.424252 30.320585 -3.950587 0.000000 0.000000 0.000000 -0.841299 -4.026533 9.921550 0.103504 -1.831852 4.062986 0.000000 0.000000 0.000000 0.121708 -1.814044 4.068637 1.117040 -3.043178 -0.049111 0.121708 -1.814044 4.068637 -17.138335 -8.604714 2.881084 -43.517130 -41.710239 14.661505 179.999294 -84.910066 -179.998952 0.121708 -1.814044 4.068637 9.658551 1.781809 0.899246 51.737303 30.932558 0.907025 179.999981 73.945427 -179.999967 0.000000 0.000000 0.000000 20.231569 9.863396 -15.129826 2.721402 -9.890359 70.469362 0.000000 0.000000 0.000000 -15.024278 -15.764574 -52.080418 3.262993 8.706554 69.762825 
-4.523611 1.636208 84.573517 5.811919 31.375553 -2.704969 0.000000 0.000000 0.000000 0.398574 2.148643 10.044669 0.512536 1.096692 4.120781 0.000000 0.000000 0.000000 0.502154 1.134951 4.113004 1.826824 -4.913742 0.107184 0.502154 1.134951 4.113004 -17.127603 -9.061600 2.988636 -47.492489 -34.550140 28.017000 -179.999993 -72.481163 179.999981 0.502154 1.134951 4.113004 6.101948 -3.005341 0.069066 36.265499 40.687417 -16.302865 0.000036 77.675507 -0.000037 0.000000 0.000000 0.000000 18.670712 7.568040 -21.717398 -4.861851 -11.590247 77.691595 0.000000 0.000000 0.000000 -15.803234 -14.299817 -51.964998 2.916174 9.785878 69.083794 
